<svg xmlns="http://www.w3.org/2000/svg" width="768" height="1024" fill="none"><path fill="#B8D0BE" d="M0 0h768v1024H0z"/><path fill="#EFEFEF" d="M56 816h656v208H56z"/><path fill="#00F" d="M72 854c0-9 2-16 6-21 4-4 9-6 17-6h6v8l-5-1-9 2-4 4-2 9c2-4 6-6 10-6s7 2 10 4c2 3 3 6 3 11s-1 9-4 11c-3 3-6 5-11 5-4 0-7-1-9-3-3-1-5-4-6-7l-2-10zm16 12c3 0 4-1 5-2l2-6-2-5c-1-2-2-2-4-2s-4 0-5 2c-2 1-2 2-2 4 0 3 0 5 2 6 1 2 2 3 4 3z"/><path fill="#EFEFEF" d="M392 640h320v160H392z"/><path fill="#0FF" d="M425 668c4 0 8 1 10 4 3 2 4 5 4 10s-1 9-4 12c-3 2-8 4-14 4-5 0-9-1-12-3v-8a26 26 0 0 0 12 3c6 0 9-3 9-7 0-5-3-7-9-7h-4l-3 1-4-2 1-24h25v9h-16l-1 8h6z"/><path fill="#EFEFEF" d="M56 640h320v160H56z"/><path fill="#0F0" d="M105 688h-5v9H90v-9H71v-7l20-30h9v29h5v8zm-15-8v-8a144 144 0 0 1 1-10h-1l-2 5-9 13h11z"/><path fill="#EFEFEF" d="M392 1h320v127H392z"/><path fill="#FF0" d="M438 23c0 2 0 5-2 7l-7 4 8 4c2 1 3 4 3 7 0 4-2 8-5 10s-8 4-14 4c-5 0-9-1-13-3v-8a30 30 0 0 0 12 3c4 0 6-1 7-2 2-1 3-2 3-5 0-2-1-4-3-4l-8-2h-4v-7h4l7-2c2 0 3-2 3-4 0-4-2-6-7-6l-4 1-5 3-5-7c4-3 9-4 15-4 5 0 9 1 11 3 3 1 4 4 4 8z"/><path fill="#EFEFEF" d="M56 144h656v478H56z"/><path fill="#F80" d="M104 201H72v-7l12-11 6-8 3-3v-4l-1-4-4-1-5 1-6 3-5-6 6-4 5-2h5l8 1 5 5 2 6-1 6-4 6-8 8-6 5v1h20v8z"/><path fill="#EFEFEF" d="M56 0h320v128H56z"/><path fill="red" d="M96 57h-9V21l-4 4-5 4-4-6 14-12h8v46z"/></svg>