<svg xmlns="http://www.w3.org/2000/svg" width="320" height="568" fill="none"><g clip-path="url(#clip0)"><path fill="#B8D0BE" d="M0 0h320v568H0z"/><path fill="#EFEFEF" d="M0 496h320v72H0z"/><path fill="#00F" d="M16 534c0-9 2-16 6-21 4-4 9-6 17-6h6v8l-5-1-9 2-4 4-2 9c2-4 6-6 10-6s7 2 10 4c2 3 3 6 3 11s-1 9-4 11c-3 3-6 5-11 5-4 0-7-1-9-3-3-1-5-4-6-7l-2-10zm16 12c3 0 4-1 5-2l2-6-2-5c-1-2-2-2-4-2s-4 0-5 2c-2 1-2 2-2 4 0 3 0 5 2 6 1 2 2 3 4 3z"/><path fill="#EFEFEF" d="M0 416h320v64H0z"/><path fill="#0FF" d="M33 444c4 0 8 1 10 4 3 2 4 5 4 10s-1 9-4 12c-3 2-8 4-14 4-5 0-9-1-12-3v-8a26 26 0 0 0 12 3c6 0 9-3 9-7 0-5-3-7-9-7h-4l-3 1-4-2 1-24h25v9H28l-1 8h6z"/><path fill="#EFEFEF" d="M0 336h320v64H0z"/><path fill="#0F0" d="M49 384h-5v9H34v-9H15v-7l20-30h9v29h5v8zm-15-8v-8a144 144 0 0 1 1-10h-1l-2 5-9 13h11z"/><path fill="#EFEFEF" d="M0 256h320v64H0z"/><path fill="#FF0" d="M46 278c0 2 0 5-2 7l-7 4 8 4c2 1 3 4 3 7 0 4-2 8-5 10s-8 4-14 4c-5 0-9-1-13-3v-8a30 30 0 0 0 12 3c4 0 6-1 7-2 2-1 3-2 3-5 0-2-1-4-3-4l-8-2h-4v-7h4l7-2c2 0 3-2 3-4 0-4-2-6-7-6l-4 1-5 3-5-7c4-3 9-4 15-4 5 0 9 1 11 3 3 1 4 4 4 8z"/><path fill="#EFEFEF" d="M0 96h320v144H0z"/><path fill="#F80" d="M48 153H16v-7l12-11 6-8 3-3v-4l-1-4-4-1-5 1-6 3-5-6 6-4 5-2h5l8 1 5 5 2 6-1 6-4 6-8 8-6 5v1h20v8z"/><path fill="#EFEFEF" d="M0 0h320v80H0z"/><path fill="red" d="M40 57h-9V21l-4 4-5 4-4-6 14-12h8v46z"/><path d="M13 200l-14 9 14 11m296-22l12 11-12 9"/><path fill="red" d="M255 190l-1 2-1 1 2 1v1l-1 2-2 1h-3v-1a6 6 0 0 0 3 1l2-1 1-2-1-1-2-1h-1v-1h3v-3l-2-1-1 1h-2l1-1h2l2 1 1 1zm8 8h-6v-1l3-2 1-2 1-1v-3l-2-1-2 1h-1l3-1 2 1 1 1-1 2-1 3-3 2h5v1zm9-5l-1 4-3 1-2-1-1-4 1-4 2-1 3 1 1 4zm-6 0v3l2 2 2-2 1-3-1-3-2-2-2 2v3zm11 5l-3-1v4-10 1l3-2 2 1 1 3-1 3-2 1zm0 0l2-1v-3c0-2-1-3-2-3l-2 1-1 2 1 3 2 1zm7-4l-3-3h1l2 3 2-3h1l-2 3 2 4h-1l-2-3-2 3h-1l3-4z"/><path d="M177 50v78m-10-62l9 14 10-14m-19 46l10-16 9 16"/><path fill="red" d="M195 128h-1v-9l-2 2v-1l2-2h1v10zm4-4l1-4 1-2h4v1l-1-1c-2 0-2 1-3 2l-1 3 1-1h2l2 1 1 2-1 2-2 1-3-1-1-3zm4 4l1-1 1-2-1-2-1-1-2 1-1 1v2l1 1 2 1zm8 0l-3-1v4-10 1l3-2 2 1 1 3-1 3-2 1zm0 0l2-1v-3c0-2-1-3-2-3l-2 1-1 2 1 3 2 1zm7-4l-3-3h1l2 3 2-3h1l-2 3 2 4h-1l-2-3-2 3h-1l3-4z"/><path d="M0 209h321"/></g><defs><clipPath id="clip0"><path fill="#fff" d="M0 0h320v568H0z"/></clipPath></defs></svg>