<svg xmlns="http://www.w3.org/2000/svg" width="1440" height="900" fill="none"><path fill="#B8D0BE" d="M0 0h1440v900H0z"/><path fill="#EFEFEF" d="M224 656h992v240H224z"/><path fill="#00F" d="M240 694c0-9 2-16 6-21 4-4 9-6 17-6h6v8l-5-1-9 2-4 4-2 9c2-4 6-6 10-6s7 2 10 4c2 3 3 6 3 11s-1 9-4 11c-3 3-6 5-11 5-4 0-7-1-9-3-3-1-5-4-6-7l-2-10zm16 12c3 0 4-1 5-2l2-6-2-5c-1-2-2-2-4-2s-4 0-5 2c-2 1-2 2-2 4 0 3 0 5 2 6 1 2 2 3 4 3z"/><path fill="#EFEFEF" d="M224 496h320v144H224z"/><path fill="#0FF" d="M257 524c4 0 8 1 10 4 3 2 4 5 4 10s-1 9-4 12c-3 2-8 4-14 4-5 0-9-1-12-3v-8a26 26 0 0 0 12 3c6 0 9-3 9-7 0-5-3-7-9-7h-4l-3 1-4-2 1-24h25v9h-16l-1 8h6z"/><path fill="#EFEFEF" d="M224 336h320v144H224z"/><path fill="#0F0" d="M273 384h-5v9h-10v-9h-19v-7l20-30h9v29h5v8zm-15-8v-8a144 144 0 0 1 1-10h-1l-2 5-9 13h11z"/><path fill="#EFEFEF" d="M224 176h320v144H224z"/><path fill="#FF0" d="M270 198c0 2 0 5-2 7l-7 4 8 4c2 1 3 4 3 7 0 4-2 8-5 10s-8 4-14 4c-5 0-9-1-13-3v-8a30 30 0 0 0 12 3c4 0 6-1 7-2 2-1 3-2 3-5 0-2-1-4-3-4l-8-2h-4v-7h4l7-2c2 0 3-2 3-4 0-4-2-6-7-6l-4 1-5 3-5-7c4-3 9-4 15-4 5 0 9 1 11 3 3 1 4 4 4 8z"/><path fill="#EFEFEF" d="M560 0h656v640H560z"/><path fill="#F80" d="M608 57h-32v-7l12-11 6-8 3-3v-4l-1-4-4-1-5 1-6 3-5-6 6-4 5-2h5l8 1 5 5 2 6-1 6-4 6-8 8-6 5v1h20v8z"/><path fill="#EFEFEF" d="M224 0h320v160H224z"/><path fill="red" d="M264 57h-9V21l-4 4-5 4-4-6 14-12h8v46z"/><path d="M311 194l-12-19-12 19m22-48l-10 15-10-15m10 105V101"/><path fill="red" d="M598 65h-1v-9l-2 2v-1l2-2h1v10zm4-4l1-4 1-2h4v1l-1-1c-2 0-2 1-3 2l-1 3 1-1h2l2 1 1 2-1 2-2 1-3-1-1-3zm4 4l1-1 1-2-1-2-1-1-2 1-1 1v2l1 1 2 1zm8 0l-3-1v4-10 1l3-2 2 1 1 3-1 3-2 1zm0 0l2-1v-3c0-2-1-3-2-3l-2 1-1 2 1 3 2 1zm7-4l-3-3h1l2 3 2-3h1l-2 3 2 4h-1l-2-3-2 3h-1l3-4z"/><path d="M578 63l-19 12 19 12m-48-22l15 10-15 10m105-10H485"/><path fill="red" d="M316 149h-1v-9l-2 2v-1l2-2h1v10zm4-4l1-4 1-2h4v1l-1-1c-2 0-2 1-3 2l-1 3 1-1h2l2 1 1 2-1 2-2 1-3-1-1-3zm4 4l1-1 1-2-1-2-1-1-2 1-1 1v2l1 1 2 1zm8 0l-3-1v4-10 1l3-2 2 1 1 3-1 3-2 1zm0 0l2-1v-3c0-2-1-3-2-3l-2 1-1 2 1 3 2 1zm7-4l-3-3h1l2 3 2-3h1l-2 3 2 4h-1l-2-3-2 3h-1l3-4z"/><path d="M543 305H226m13-9l-14 9 14 13m291-23l14 11-14 10"/><path fill="red" d="M486 287l-1 2-1 1 2 1v1l-1 2-2 1h-3v-1a6 6 0 0 0 3 1l2-1 1-2-1-1-2-1h-1v-1h3v-3l-2-1-1 1h-2l1-1h2l2 1 1 1zm8 8h-6v-1l3-2 1-2 1-1v-3l-2-1-2 1h-1l3-1 2 1 1 1-1 2-1 3-3 2h5v1zm9-5l-1 4-3 1-2-1-1-4 1-4 2-1 3 1 1 4zm-6 0v3l2 2 2-2 1-3-1-3-2-2-2 2v3zm11 5l-3-1v4-10 1l3-2 2 1 1 3-1 3-2 1zm0 0l2-1v-3c0-2-1-3-2-3l-2 1-1 2 1 3 2 1zm7-4l-3-3h1l2 3 2-3h1l-2 3 2 4h-1l-2-3-2 3h-1l3-4z"/><path d="M228 866h987m-28-20l29 20-29 19m-944-37l-17 18 17 19"/><path fill="red" d="M1132 843v4l-2 2h-3v-1 1h1l3-2 1-3-2 1h-1l-2-1-1-2 1-2 2-1h2l1 2v2zm-3-4l-2 1v4l2 1a3 3 0 0 0 2-2l1-1-1-1-1-1-1-1zm11 4v4l-2 2h-3v-1 1h1l3-2 1-3-2 1h-1l-2-1-1-2 1-2 2-1a3 3 0 0 1 3 2v2zm-3-4l-2 1v4l2 1a3 3 0 0 0 2-2l1-1-1-1-1-1-1-1zm11 10h-6v-1l3-2 1-2 1-1v-3l-2-1-2 1h-1l3-1 2 1 1 1-1 2-1 3-3 2h5v1zm6 0l-3-1v4-10 1l3-2 2 1 1 3-1 3-2 1zm0 0l2-1v-3c0-2-1-3-2-3l-2 1-1 2 1 3 2 1zm7-4l-3-3h1l2 3 2-3h1l-2 3 2 4h-1l-2-3-2 3h-1l3-4z"/></svg>